# xmcd CD database file
#
# Track frame offsets:
#	150
#	12525
#	31032
#	43557
#	58746
#	75171
#	88071
#	107076
#	119076
#	134976
#	152216
#	169166
#	184991
#	201494
#
# Disc length: 2898 seconds
#
# Revision: 0
# Processed by: cddbd v1.4PL0 Copyright (c) Steve Scherf et al.
# Submitted via: CDex 1.40Release
#
DISCID=c70b500e
DTITLE=Nashville Session Sigers - Country Babes
DYEAR=1997
DGENRE=Country
TTITLE0=Wild One
TTITLE1=Any Man Of Mine
TTITLE2=What Part Of No
TTITLE3=And Still
TTITLE4=He Thinks He'll Keep Her
TTITLE5=XXX'S And OOO's
TTITLE6=When You Say Noting At All
TTITLE7=My Baby Loves Me
TTITLE8=Watch Me
TTITLE9=The Heart Is A Lonely Hunter
TTITLE10=Shut Up and Kiss Me
TTITLE11=Blame It On Your Heart
TTITLE12=No-one Else On Earth
TTITLE13=Why Haven't I Heard From You
EXTD=YEAR: 1997 ID3G: 2
EXTT0=
EXTT1=
EXTT2=
EXTT3=
EXTT4=
EXTT5=
EXTT6=
EXTT7=
EXTT8=
EXTT9=
EXTT10=
EXTT11=
EXTT12=
EXTT13=
PLAYORDER=
